<svg width="12" height="12" viewBox="0 0 12 12" fill="none" xmlns="http://www.w3.org/2000/svg">
<path fill-rule="evenodd" clip-rule="evenodd" d="M1.68106 9.44675C1.44013 9.68775 1.44016 10.0784 1.68114 10.3193C1.92211 10.5602 2.31276 10.5602 2.55369 10.3192L5.99974 6.8726L9.44608 10.3189C9.68701 10.5599 10.0777 10.5599 10.3186 10.3189C10.5596 10.078 10.5596 9.68732 10.3186 9.44638L6.87223 5.99999L10.3184 2.55324C10.5593 2.31226 10.5593 1.92161 10.3183 1.68068C10.0773 1.43974 9.68664 1.43978 9.44571 1.68075L5.99962 5.12744L2.55327 1.68105C2.31232 1.4401 1.92166 1.4401 1.68072 1.68105C1.43976 1.922 1.43976 2.31266 1.68072 2.55361L5.12719 6.00005L1.68106 9.44675Z" fill="white" fill-opacity="0.6"/>
</svg>
